# Made in Blockbench 3.5.4
mtllib anvil.mtl
o Anvil base
v 0.48996111182864116 -0.25 0.20294853755482384
v 0.20294853755482384 -0.25 -0.48996111182864116
v 0.48996111182864116 -0.5 0.20294853755482384
v 0.20294853755482384 -0.5 -0.48996111182864116
v -0.48996111182864116 -0.25 -0.20294853755482384
v -0.20294853755482384 -0.25 0.48996111182864116
v -0.48996111182864116 -0.5 -0.20294853755482384
v -0.20294853755482384 -0.5 0.48996111182864116
vt 0 0.875
vt 0.25 0.875
vt 0 0.125
vt 0.25 0.875
vt 0.25 0.125
vt 0 0.125
vt 0 0.125
vt 0.25 0.125
vt 0 0.875
vt 0.25 0.125
vt 0.25 0.875
vt 0 0.875
vt 0.875 0.125
vt 0.875 0.875
vt 0.125 0.125
vt 0.875 0.875
vt 0.125 0.875
vt 0.125 0.125
vt 0.875 0.125
vt 0.875 0.875
vt 0.125 0.125
vt 0.875 0.875
vt 0.125 0.875
vt 0.125 0.125
vt 0.125 0.25
vt 0.125 0
vt 0.875 0.25
vt 0.125 0
vt 0.875 0
vt 0.875 0.25
vt 0.125 0.25
vt 0.125 0
vt 0.875 0.25
vt 0.125 0
vt 0.875 0
vt 0.875 0.25
vn 0.9238795325112867 0 -0.3826834323650897
vn 0.9238795325112867 0 -0.3826834323650897
vn 0.9238795325112867 0 -0.3826834323650897
vn 0.9238795325112867 0 -0.3826834323650897
vn 0.9238795325112867 0 -0.3826834323650897
vn 0.9238795325112867 0 -0.3826834323650897
vn -0.9238795325112867 0 0.3826834323650897
vn -0.9238795325112867 0 0.3826834323650897
vn -0.9238795325112867 0 0.3826834323650897
vn -0.9238795325112867 0 0.3826834323650897
vn -0.9238795325112867 0 0.3826834323650897
vn -0.9238795325112867 0 0.3826834323650897
vn 0 1 0
vn 0 1 0
vn 0 1 0
vn 0 1 0
vn 0 1 0
vn 0 1 0
vn 0 -1 0
vn 0 -1 0
vn 0 -1 0
vn 0 -1 0
vn 0 -1 0
vn 0 -1 0
vn 0.3826834323650897 0 0.9238795325112867
vn 0.3826834323650897 0 0.9238795325112867
vn 0.3826834323650897 0 0.9238795325112867
vn 0.3826834323650897 0 0.9238795325112867
vn 0.3826834323650897 0 0.9238795325112867
vn 0.3826834323650897 0 0.9238795325112867
vn -0.3826834323650897 0 -0.9238795325112867
vn -0.3826834323650897 0 -0.9238795325112867
vn -0.3826834323650897 0 -0.9238795325112867
vn -0.3826834323650897 0 -0.9238795325112867
vn -0.3826834323650897 0 -0.9238795325112867
vn -0.3826834323650897 0 -0.9238795325112867
usemtl body
f 1/1/1 3/2/2 2/3/3
f 3/4/4 4/5/5 2/6/6
usemtl body
f 5/7/7 7/8/8 6/9/9
f 7/10/10 8/11/11 6/12/12
usemtl body
f 5/13/13 6/14/14 2/15/15
f 6/16/16 1/17/17 2/18/18
usemtl body
f 8/19/19 7/20/20 3/21/21
f 7/22/22 4/23/23 3/24/24
usemtl body
f 6/25/25 8/26/26 1/27/27
f 8/28/28 3/29/29 1/30/30
usemtl body
f 2/31/31 4/32/32 5/33/33
f 4/34/34 7/35/35 5/36/36
o Lower narrow portion
v 0.11138131051373115 -0.1875 0.3843832120010495
v 0.35055845574191224 -0.1875 -0.1930414958185047
v 0.11138131051373115 -0.25 0.3843832120010495
v 0.35055845574191224 -0.25 -0.1930414958185047
v -0.11138131051373115 -0.1875 -0.3843832120010495
v -0.35055845574191224 -0.1875 0.1930414958185047
v -0.11138131051373115 -0.25 -0.3843832120010495
v -0.35055845574191224 -0.25 0.1930414958185047
vt 0.25 0.8125
vt 0.3125 0.8125
vt 0.25 0.1875
vt 0.3125 0.8125
vt 0.3125 0.1875
vt 0.25 0.1875
vt 0.25 0.1875
vt 0.3125 0.1875
vt 0.25 0.8125
vt 0.3125 0.1875
vt 0.3125 0.8125
vt 0.25 0.8125
vt 0.75 0.1875
vt 0.75 0.8125
vt 0.25 0.1875
vt 0.75 0.8125
vt 0.25 0.8125
vt 0.25 0.1875
vt 0 1
vt 0 1
vt 0 1
vt 0 1
vt 0 1
vt 0 1
vt 0.25 0.3125
vt 0.25 0.25
vt 0.75 0.3125
vt 0.25 0.25
vt 0.75 0.25
vt 0.75 0.3125
vt 0.25 0.3125
vt 0.25 0.25
vt 0.75 0.3125
vt 0.25 0.25
vt 0.75 0.25
vt 0.75 0.3125
vn 0.9238795325112867 0 0.3826834323650897
vn 0.9238795325112867 0 0.3826834323650897
vn 0.9238795325112867 0 0.3826834323650897
vn 0.9238795325112867 0 0.3826834323650897
vn 0.9238795325112867 0 0.3826834323650897
vn 0.9238795325112867 0 0.3826834323650897
vn -0.9238795325112867 0 -0.3826834323650897
vn -0.9238795325112867 0 -0.3826834323650897
vn -0.9238795325112867 0 -0.3826834323650897
vn -0.9238795325112867 0 -0.3826834323650897
vn -0.9238795325112867 0 -0.3826834323650897
vn -0.9238795325112867 0 -0.3826834323650897
vn 0 1 0
vn 0 1 0
vn 0 1 0
vn 0 1 0
vn 0 1 0
vn 0 1 0
vn 0 -1 0
vn 0 -1 0
vn 0 -1 0
vn 0 -1 0
vn 0 -1 0
vn 0 -1 0
vn -0.3826834323650897 0 0.9238795325112867
vn -0.3826834323650897 0 0.9238795325112867
vn -0.3826834323650897 0 0.9238795325112867
vn -0.3826834323650897 0 0.9238795325112867
vn -0.3826834323650897 0 0.9238795325112867
vn -0.3826834323650897 0 0.9238795325112867
vn 0.3826834323650897 0 -0.9238795325112867
vn 0.3826834323650897 0 -0.9238795325112867
vn 0.3826834323650897 0 -0.9238795325112867
vn 0.3826834323650897 0 -0.9238795325112867
vn 0.3826834323650897 0 -0.9238795325112867
vn 0.3826834323650897 0 -0.9238795325112867
usemtl body
f 9/37/37 11/38/38 10/39/39
f 11/40/40 12/41/41 10/42/42
usemtl body
f 13/43/43 15/44/44 14/45/45
f 15/46/46 16/47/47 14/48/48
usemtl body
f 13/49/49 14/50/50 10/51/51
f 14/52/52 9/53/53 10/54/54
usemtl body
f 14/61/61 16/62/62 9/63/63
f 16/64/64 11/65/65 9/66/66
usemtl body
f 10/67/67 12/68/68 13/69/69
f 12/70/70 15/71/71 13/72/72
o Wider section beneath top portion
v 0.01981408347263841 0.125 0.2788053121734579
v 0.21115579965518327 0.125 -0.18313445408218548
v 0.01981408347263841 -0.1875 0.2788053121734579
v 0.21115579965518327 -0.1875 -0.18313445408218548
v -0.01981408347263841 0.125 -0.2788053121734579
v -0.21115579965518327 0.125 0.18313445408218548
v -0.01981408347263841 -0.1875 -0.2788053121734579
v -0.21115579965518327 -0.1875 0.18313445408218548
vt 0.3125 0.75
vt 0.625 0.75
vt 0.3125 0.25
vt 0.625 0.75
vt 0.625 0.25
vt 0.3125 0.25
vt 0.3125 0.25
vt 0.625 0.25
vt 0.3125 0.75
vt 0.625 0.25
vt 0.625 0.75
vt 0.3125 0.75
vt 0 1
vt 0 1
vt 0 1
vt 0 1
vt 0 1
vt 0 1
vt 0 1
vt 0 1
vt 0 1
vt 0 1
vt 0 1
vt 0 1
vt 0.375 0.625
vt 0.375 0.3125
vt 0.625 0.625
vt 0.375 0.3125
vt 0.625 0.3125
vt 0.625 0.625
vt 0.375 0.625
vt 0.375 0.3125
vt 0.625 0.625
vt 0.375 0.3125
vt 0.625 0.3125
vt 0.625 0.625
vn 0.9238795325112867 0 0.3826834323650897
vn 0.9238795325112867 0 0.3826834323650897
vn 0.9238795325112867 0 0.3826834323650897
vn 0.9238795325112867 0 0.3826834323650897
vn 0.9238795325112867 0 0.3826834323650897
vn 0.9238795325112867 0 0.3826834323650897
vn -0.9238795325112867 0 -0.3826834323650897
vn -0.9238795325112867 0 -0.3826834323650897
vn -0.9238795325112867 0 -0.3826834323650897
vn -0.9238795325112867 0 -0.3826834323650897
vn -0.9238795325112867 0 -0.3826834323650897
vn -0.9238795325112867 0 -0.3826834323650897
vn 0 1 0
vn 0 1 0
vn 0 1 0
vn 0 1 0
vn 0 1 0
vn 0 1 0
vn 0 -1 0
vn 0 -1 0
vn 0 -1 0
vn 0 -1 0
vn 0 -1 0
vn 0 -1 0
vn -0.3826834323650897 0 0.9238795325112867
vn -0.3826834323650897 0 0.9238795325112867
vn -0.3826834323650897 0 0.9238795325112867
vn -0.3826834323650897 0 0.9238795325112867
vn -0.3826834323650897 0 0.9238795325112867
vn -0.3826834323650897 0 0.9238795325112867
vn 0.3826834323650897 0 -0.9238795325112867
vn 0.3826834323650897 0 -0.9238795325112867
vn 0.3826834323650897 0 -0.9238795325112867
vn 0.3826834323650897 0 -0.9238795325112867
vn 0.3826834323650897 0 -0.9238795325112867
vn 0.3826834323650897 0 -0.9238795325112867
usemtl body
f 17/73/73 19/74/74 18/75/75
f 19/76/76 20/77/77 18/78/78
usemtl body
f 21/79/79 23/80/80 22/81/81
f 23/82/82 24/83/83 22/84/84
usemtl body
f 22/97/97 24/98/98 17/99/99
f 24/100/100 19/101/101 17/102/102
usemtl body
f 18/103/103 20/104/104 21/105/105
f 20/106/106 23/107/107 21/108/108
o Anvil top
v 0.09737063772723226 0.5 0.5815283388697339
v 0.480054070092322 0.5 -0.34235119364155286
v 0.09737063772723226 0.125 0.5815283388697339
v 0.480054070092322 0.125 -0.34235119364155286
v -0.09737063772723226 0.5 -0.5815283388697339
v -0.480054070092322 0.5 0.34235119364155286
v -0.09737063772723226 0.125 -0.5815283388697339
v -0.480054070092322 0.125 0.34235119364155286
vt 0.625 1
vt 1 1
vt 0.625 0
vt 1 1
vt 1 0
vt 0.625 0
vt 0.625 0
vt 1 0
vt 0.625 1
vt 1 0
vt 1 1
vt 0.625 1
vt 0.8125 0
vt 0.8125 1
vt 0.1875 0
vt 0.8125 1
vt 0.1875 1
vt 0.1875 0
vt 0.8125 0
vt 0.8125 1
vt 0.1875 0
vt 0.8125 1
vt 0.1875 1
vt 0.1875 0
vt 0.1875 1
vt 0.1875 0.625
vt 0.8125 1
vt 0.1875 0.625
vt 0.8125 0.625
vt 0.8125 1
vt 0.1875 1
vt 0.1875 0.625
vt 0.8125 1
vt 0.1875 0.625
vt 0.8125 0.625
vt 0.8125 1
vn 0.9238795325112867 0 0.3826834323650897
vn 0.9238795325112867 0 0.3826834323650897
vn 0.9238795325112867 0 0.3826834323650897
vn 0.9238795325112867 0 0.3826834323650897
vn 0.9238795325112867 0 0.3826834323650897
vn 0.9238795325112867 0 0.3826834323650897
vn -0.9238795325112867 0 -0.3826834323650897
vn -0.9238795325112867 0 -0.3826834323650897
vn -0.9238795325112867 0 -0.3826834323650897
vn -0.9238795325112867 0 -0.3826834323650897
vn -0.9238795325112867 0 -0.3826834323650897
vn -0.9238795325112867 0 -0.3826834323650897
vn 0 1 0
vn 0 1 0
vn 0 1 0
vn 0 1 0
vn 0 1 0
vn 0 1 0
vn 0 -1 0
vn 0 -1 0
vn 0 -1 0
vn 0 -1 0
vn 0 -1 0
vn 0 -1 0
vn -0.3826834323650897 0 0.9238795325112867
vn -0.3826834323650897 0 0.9238795325112867
vn -0.3826834323650897 0 0.9238795325112867
vn -0.3826834323650897 0 0.9238795325112867
vn -0.3826834323650897 0 0.9238795325112867
vn -0.3826834323650897 0 0.9238795325112867
vn 0.3826834323650897 0 -0.9238795325112867
vn 0.3826834323650897 0 -0.9238795325112867
vn 0.3826834323650897 0 -0.9238795325112867
vn 0.3826834323650897 0 -0.9238795325112867
vn 0.3826834323650897 0 -0.9238795325112867
vn 0.3826834323650897 0 -0.9238795325112867
usemtl body
f 25/109/109 27/110/110 26/111/111
f 27/112/112 28/113/113 26/114/114
usemtl body
f 29/115/115 31/116/116 30/117/117
f 31/118/118 32/119/119 30/120/120
usemtl top
f 29/121/121 30/122/122 26/123/123
f 30/124/124 25/125/125 26/126/126
usemtl body
f 32/127/127 31/128/128 27/129/129
f 31/130/130 28/131/131 27/132/132
usemtl body
f 30/133/133 32/134/134 25/135/135
f 32/136/136 27/137/137 25/138/138
usemtl body
f 26/139/139 28/140/140 29/141/141
f 28/142/142 31/143/143 29/144/144
o storage_base
v -0.375 0.125 1.5
v -0.375 0.125 0.5
v -0.375 -0.5 1.5
v -0.375 -0.5 0.5
v -1.375 0.125 0.5
v -1.375 0.125 1.5
v -1.375 -0.5 0.5
v -1.375 -0.5 1.5
vt 0 1
vt 0 0.375
vt 1 1
vt 0 0.375
vt 1 0.375
vt 1 1
vt 0 1
vt 0 0.375
vt 1 1
vt 0 0.375
vt 1 0.375
vt 1 1
vt 0 1
vt 0 0
vt 1 1
vt 0 0
vt 1 0
vt 1 1
vt 0 1
vt 0 0
vt 1 1
vt 0 0
vt 1 0
vt 1 1
vt 0 1
vt 0 0.375
vt 1 1
vt 0 0.375
vt 1 0.375
vt 1 1
vt 0 1
vt 0 0.375
vt 1 1
vt 0 0.375
vt 1 0.375
vt 1 1
vn 1 0 0
vn 1 0 0
vn 1 0 0
vn 1 0 0
vn 1 0 0
vn 1 0 0
vn -1 0 0
vn -1 0 0
vn -1 0 0
vn -1 0 0
vn -1 0 0
vn -1 0 0
vn 0 1 0
vn 0 1 0
vn 0 1 0
vn 0 1 0
vn 0 1 0
vn 0 1 0
vn 0 -1 0
vn 0 -1 0
vn 0 -1 0
vn 0 -1 0
vn 0 -1 0
vn 0 -1 0
vn 0 0 1
vn 0 0 1
vn 0 0 1
vn 0 0 1
vn 0 0 1
vn 0 0 1
vn 0 0 -1
vn 0 0 -1
vn 0 0 -1
vn 0 0 -1
vn 0 0 -1
vn 0 0 -1
usemtl none
f 33/145/145 35/146/146 34/147/147
f 35/148/148 36/149/149 34/150/150
usemtl none
f 37/151/151 39/152/152 38/153/153
f 39/154/154 40/155/155 38/156/156
usemtl none
f 37/157/157 38/158/158 34/159/159
f 38/160/160 33/161/161 34/162/162
usemtl none
f 40/163/163 39/164/164 35/165/165
f 39/166/166 36/167/167 35/168/168
usemtl none
f 38/169/169 40/170/170 33/171/171
f 40/172/172 35/173/173 33/174/174
usemtl none
f 34/175/175 36/176/176 37/177/177
f 36/178/178 39/179/179 37/180/180
o storage_middle
v -0.26072330470336313 0.4375 1.0044417382415922
v -0.8794417382415922 0.4375 0.3857233047033632
v -0.26072330470336313 0.125 1.0044417382415922
v -0.8794417382415922 0.125 0.3857233047033632
v -1.4981601717798212 0.4375 1.0044417382415922
v -0.8794417382415922 0.4375 1.6231601717798214
v -1.4981601717798212 0.125 1.0044417382415922
v -0.8794417382415922 0.125 1.6231601717798214
vt 0 1
vt 0 0.6875
vt 0.875 1
vt 0 0.6875
vt 0.875 0.6875
vt 0.875 1
vt 0 1
vt 0 0.6875
vt 0.875 1
vt 0 0.6875
vt 0.875 0.6875
vt 0.875 1
vt 0 1
vt 0 0.125
vt 0.875 1
vt 0 0.125
vt 0.875 0.125
vt 0.875 1
vt 0 1
vt 0 0.125
vt 0.875 1
vt 0 0.125
vt 0.875 0.125
vt 0.875 1
vt 0 1
vt 0 0.6875
vt 0.875 1
vt 0 0.6875
vt 0.875 0.6875
vt 0.875 1
vt 0 1
vt 0 0.6875
vt 0.875 1
vt 0 0.6875
vt 0.875 0.6875
vt 0.875 1
vn 0.7071067811865475 0 -0.7071067811865476
vn 0.7071067811865475 0 -0.7071067811865476
vn 0.7071067811865475 0 -0.7071067811865476
vn 0.7071067811865475 0 -0.7071067811865476
vn 0.7071067811865475 0 -0.7071067811865476
vn 0.7071067811865475 0 -0.7071067811865476
vn -0.7071067811865475 0 0.7071067811865476
vn -0.7071067811865475 0 0.7071067811865476
vn -0.7071067811865475 0 0.7071067811865476
vn -0.7071067811865475 0 0.7071067811865476
vn -0.7071067811865475 0 0.7071067811865476
vn -0.7071067811865475 0 0.7071067811865476
vn 0 1 0
vn 0 1 0
vn 0 1 0
vn 0 1 0
vn 0 1 0
vn 0 1 0
vn 0 -1 0
vn 0 -1 0
vn 0 -1 0
vn 0 -1 0
vn 0 -1 0
vn 0 -1 0
vn 0.7071067811865476 0 0.7071067811865475
vn 0.7071067811865476 0 0.7071067811865475
vn 0.7071067811865476 0 0.7071067811865475
vn 0.7071067811865476 0 0.7071067811865475
vn 0.7071067811865476 0 0.7071067811865475
vn 0.7071067811865476 0 0.7071067811865475
vn -0.7071067811865476 0 -0.7071067811865475
vn -0.7071067811865476 0 -0.7071067811865475
vn -0.7071067811865476 0 -0.7071067811865475
vn -0.7071067811865476 0 -0.7071067811865475
vn -0.7071067811865476 0 -0.7071067811865475
vn -0.7071067811865476 0 -0.7071067811865475
usemtl none
f 41/181/181 43/182/182 42/183/183
f 43/184/184 44/185/185 42/186/186
usemtl none
f 45/187/187 47/188/188 46/189/189
f 47/190/190 48/191/191 46/192/192
usemtl none
f 45/193/193 46/194/194 42/195/195
f 46/196/196 41/197/197 42/198/198
usemtl none
f 48/199/199 47/200/200 43/201/201
f 47/202/202 44/203/203 43/204/204
usemtl none
f 46/205/205 48/206/206 41/207/207
f 48/208/208 43/209/209 41/210/210
usemtl none
f 42/211/211 44/212/212 45/213/213
f 44/214/214 47/215/215 45/216/216
